<svg id="SvgjsSvg1001" width="288" height="288" xmlns="http://www.w3.org/2000/svg" version="1.1" xmlns:xlink="http://www.w3.org/1999/xlink" xmlns:svgjs="http://svgjs.com/svgjs"><defs id="SvgjsDefs1002"></defs><g id="SvgjsG1008"><svg xmlns="http://www.w3.org/2000/svg" width="288" height="288" viewBox="0 0 362.734 512"><g transform="translate(-74.633)" fill="#303a52" class="color000 svgShape"><polygon fill="#574b90" points="437.367 100.62 404.321 470.819 255.778 512 107.644 470.877 74.633 100.62" class="color264de4 svgShape"></polygon><polygon fill="#9e579d" points="376.03 447.246 404.27 130.894 256 130.894 256 480.523" class="color2965f1 svgShape"></polygon><polygon fill="#fc85ae" points="150.31 268.217 154.38 313.627 256 313.627 256 268.217" class="colorebebeb svgShape"></polygon><polygon fill="#fc85ae" points="256 176.305 255.843 176.305 142.132 176.305 146.26 221.716 256 221.716" class="colorebebeb svgShape"></polygon><polygon fill="#fc85ae" points="256 433.399 256 386.153 255.801 386.206 205.227 372.55 201.994 336.333 177.419 336.333 156.409 336.333 162.771 407.634 255.791 433.457" class="colorebebeb svgShape"></polygon><path d="M160 0l55 0 0 23-32 0 0 23 32 0 0 23-55 0zM226 0l55 0 0 20-32 0 0 4 32 0 0 46-55 0 0-21 32 0 0-4-32 0zM292 0l55 0 0 20-32 0 0 4 32 0 0 46-55 0 0-21 32 0 0-4-32 0z" fill="#303a52" class="color000 svgShape"></path><polygon fill="#ffffff" points="311.761 313.627 306.49 372.521 255.843 386.191 255.843 433.435 348.937 407.634 349.62 399.962 360.291 280.411 361.399 268.217 369.597 176.305 255.843 176.305 255.843 221.716 319.831 221.716 315.699 268.217 255.843 268.217 255.843 313.627" class="colorfff svgShape"></polygon></g></svg></g></svg>