<?xml version="1.0" encoding="utf-8"?>
<!-- Generator: Adobe Illustrator 24.0.2, SVG Export Plug-In . SVG Version: 6.00 Build 0)  -->
<svg version="1.1" id="SvgjsSvg1001" xmlns:svgjs="http://svgjs.com/svgjs"
	 xmlns="http://www.w3.org/2000/svg" xmlns:xlink="http://www.w3.org/1999/xlink" x="0px" y="0px" viewBox="0 0 110.4 109.8"
	 style="enable-background:new 0 0 110.4 109.8;" xml:space="preserve">
<style type="text/css">
	.st0{fill:url(#SVGID_1_);}
	.st1{fill:url(#SVGID_2_);}
</style>
<g id="SvgjsG1008">
	<g transform="translate(-44.938 -67.469)">
		
			<linearGradient id="SVGID_1_" gradientUnits="userSpaceOnUse" x1="100.2279" y1="278.0307" x2="154.8279" y2="223.2477" gradientTransform="matrix(1 0 0 -1 -44.938 355.359)">
			<stop  offset="0" style="stop-color:#4E38B8"/>
			<stop  offset="1" style="stop-color:#574B90"/>
		</linearGradient>
		<path class="st0" d="M99.8,67.5c-28,0-26.3,12.2-26.3,12.2l0,12.6h26.8V96H62.9c0,0-17.9-2-17.9,26.2c0,28.3,15.7,27.3,15.7,27.3
			h9.3v-13.1c0,0-0.5-15.7,15.4-15.7s26.5,0,26.5,0s14.9,0.2,14.9-14.4s0-24.2,0-24.2S129,67.5,99.8,67.5z M85,75.9
			c2.7,0,4.8,2.2,4.8,4.8s-2.2,4.8-4.8,4.8s-4.8-2.2-4.8-4.8S82.3,75.9,85,75.9z"/>
		
			<linearGradient id="SVGID_2_" gradientUnits="userSpaceOnUse" x1="133.8043" y1="243.1555" x2="192.4443" y2="186.9755" gradientTransform="matrix(1 0 0 -1 -44.938 355.359)">
			<stop  offset="0" style="stop-color:#FC85AE"/>
			<stop  offset="1" style="stop-color:#9E579D"/>
		</linearGradient>
		<path class="st1" d="M100.5,177.3c28,0,26.3-12.2,26.3-12.2l0-12.6H100v-3.8h37.4c0,0,17.9,2,17.9-26.3
			c0-28.3-15.7-27.3-15.7-27.3h-9.3v13.1c0,0,0.5,15.7-15.4,15.7s-26.5,0-26.5,0s-14.9-0.2-14.9,14.4c0,14.6,0,24.2,0,24.2
			S71.3,177.3,100.5,177.3z M115.3,168.8c-2.7,0-4.8-2.2-4.8-4.8s2.2-4.8,4.8-4.8s4.8,2.2,4.8,4.8
			C120.1,166.7,118,168.8,115.3,168.8z"/>
	</g>
</g>
</svg>
